<svg xmlns="http://www.w3.org/2000/svg" viewBox="0 0 214.68 51.12">
  <defs/>
  <path d="M75.76 48.92L83.15 41.31 83.15 39.34 70.45 39.34 69.85 40.71 77.97 40.71 77.97 41.08 69.76 49.52 69.76 50.78 83.76 50.78 83.76 49.34 75.76 49.34 75.76 48.92zM93.46 44.95L99.15 44.95 99.15 43.64 93.43 43.64 93.43 40.81 101.59 40.81 101.36 39.34 88.92 39.34 88.92 50.78 101.51 50.78 102.43 49.24 93.43 49.24 93.46 44.95zM118.91 45.42c1.8-.68 2.55-1.78 2.55-3 0-2.42-2.39-3.13-5.73-3.13H106.6V50.78h4.48V46h2.39l3.61 4.81h5.12l-4.14-5.1C118.27 45.63 118.68 45.5 118.91 45.42zM117 42.93a1.85 1.85 0 01-2 1.69h-3.89V40.78H115v0c1 0 2 .38 2 1.81A1.61 1.61 0 01117 42.93zM134.91 38.93c-4.64 0-8.78 2.2-8.78 6.13s4.06 6.06 8.78 6.06 8.78-2.22 8.78-6.06C143.69 40.93 139.55 38.93 134.91 38.93zm0 10.89c-2.11 0-4-1.31-4-4.76h0c0-3.66 1.87-4.83 4-4.83s4 1.38 4 4.83S137 49.82 134.91 49.82zM146 39.77h.73V42.6h.69V39.77h.72V39.2H146zm.8 0v0zM150.33 42.52h0l.55-2.46v-.13z" fill="#ce0e2d"/>
  <path d="M150.9,42.6h.7V39.24h-.06v0h-1.05l-.34,1.57a.9.9,0,0,0-.06.22l0-.21-.34-1.54h-1.1v3.4h.69v-.07h0v0h0v-1c0-.59,0-1.1,0-1.59v.3c0-.22,0-.45,0-.67l0,.07c0,.1,0,.2,0,.3l.57,2.67h.43l0-.08h0l.66-3v.18l-.07.32V42.6Z" fill="#ce0e2d"/>
  <path d="M115.07 11.06h-7.3V13.2c1.46 0 2.32.1 1.88 1.43l-3.32 10.06L101.2 11.06H95.31l.77 2-4 11.67-3.23-9.27c-.11-.33-.21-.58-.27-.81a2.5 2.5 0 01-.1-.72c0-.51.3-.64 1.85-.72V11.06H80.47v2.13c1.57.12 2 .21 2.45 1.6L88.7 31.68h3.84l5-14.39 5.51 14.39h3.87l5.69-17.29 0 0c.34-1 1-1.19 2.43-1.19zM77.51 27.87a1.9 1.9 0 010-.34V.26A26.22 26.22 0 0172.8 1.7c-2.49.51-4.41.7-4.41.7V4.49L70 4.29c1.34-.17 1.79.47 1.79 1.78v6.08a7.38 7.38 0 00-5-1.74c-6.57 0-10 5-10 11.13 0 8.48 4.82 10.71 9.45 10.71a7.86 7.86 0 006-2.48l.11 1.91h8.58v-1.9H79.59A2 2 0 0177.51 27.87zm-5.74-1.59c0 1.44-1.59 3.29-4.3 3.29-3 0-4.7-2-4.7-8s2-8.53 4.66-8.53a4.24 4.24 0 014.34 2.7zM21.15 14.24c3.38-1.13 6.44-3.34 6.44-7.09C27.59 2.69 23.75 0 18.14 0H0V2.19H1.47A2.36 2.36 0 014 4.36a2.26 2.26 0 010 .52V26.76a2.38 2.38 0 01-2 2.68 3 3 0 01-.52 0H0v2.19H17.67c6.84 0 11.81-3 11.81-9.2C29.48 18.12 25.93 15.21 21.15 14.24zM10.63 2.37h4.42c3.76 0 5.84 1.76 5.84 5.36 0 3.4-1.58 5.83-5.76 5.83h-4.5zm5.1 26.91H10.59V15.88H15.4c4.64 0 7 2.66 7 6.56S21 29.28 15.73 29.28zM143.13 8.06h0a3.43 3.43 0 10-3.47-3.43A3.44 3.44 0 00143.15 8.06zM52.58 27.88a1.45 1.45 0 010-.36V11.06H43.68v2.15h1.59c1.34 0 1.79.7 1.79 2V26.4C46.84 27.75 44.9 29 42.61 29c-2.87 0-3.76-1.46-3.76-3.26V11.06H29.94v2.15h1.59c1.34 0 1.79.7 1.79 2V25.73c0 4 1.92 6.47 6.9 6.47a10.69 10.69 0 007.21-2.71l.12 2.23 8.43 0v-1.9H54.67A2 2 0 0152.58 27.88zM126.9 29.65c-5.75 0-6.36-5.47-6.42-8.69h15a6.31 6.31 0 000-.87c0-5.49-3.55-9.54-10.4-9.54a10.51 10.51 0 00-10.79 10.22c0 .23 0 .45 0 .68 0 6.68 4.37 10.91 11.76 10.91h0c4.36 0 7.72-1.8 9.69-5.88l-2-1.21A7.4 7.4 0 01126.9 29.65zM125.16 12.9c2.92 0 4.14 2.84 4.16 5.88v.12h-8.83C120.75 15.36 122.24 12.9 125.16 12.9zM184.92 32.36h0zM204 20.88V17.4l3.18-2a3.11 3.11 0 003 2 3.33 3.33 0 00-.16-6.66l0 0a3.74 3.74 0 00-2.9 1.43l-3.19 3.66V10.41a32.82 32.82 0 01-4.56 1.38c-2.49.51-4.41.7-4.41.7v2.09l1.59-.2c1.34-.18 1.8.47 1.8 1.77V27.52a1.7 1.7 0 010 .39 2 2 0 01-2.13 1.86H195v1.9h12.45v-1.9h-1.66A2 2 0 01204 27.52zM185.6 29.65c-5.76 0-6.36-5.47-6.43-8.69h15.08a6.31 6.31 0 000-.87c0-5.49-3.56-9.54-10.41-9.54a10.52 10.52 0 00-10.7 10.32c0 .19 0 .39 0 .58 0 6.67 4.36 10.89 11.72 10.91 4.35 0 7.7-1.81 9.65-5.88l-2-1.21A7.37 7.37 0 01185.6 29.65zM184 12.9c3.07 0 4.13 2.84 4.15 5.88v.12h-8.83C179.57 15.36 181.06 12.9 184 12.9zM146.16 27.88a1.45 1.45 0 010-.36V10.41a24.5 24.5 0 01-4.65 1.43c-2.48.52-4.41.71-4.41.71v2.09l1.59-.2c1.34-.18 1.8.47 1.8 1.77l0-.23V27.52a2 2 0 01-1.72 2.25 2.54 2.54 0 01-.39 0h-1.2v1.9H149.6v-1.9h-1.35A2 2 0 01146.16 27.88zM165 19c-1.7-.4-4.14-.73-5.41-1-2.29-.55-3.08-1.34-3.08-2.73 0-1.59 1.31-2.67 4.25-2.67 4.62 0 6.25 2.37 6.44 5.16h2.29V10.85h-2.21l-.4 1.26a10.42 10.42 0 00-6.19-1.64c-6 0-9.08 2.71-9.08 6.52 0 3.13 1.77 5.16 5.68 6.17 1.85.48 4.72.76 6.18 1.16 2.32.63 2.76 1.41 2.75 2.89 0 1.27-.76 2.77-4.54 2.77-5 0-7.61-2.62-7.61-5.76h-2.42V31.7H154l.4-1.52a13 13 0 007.39 2.14l0 0c6.58 0 9.2-2.86 9.2-6.93C171 21.7 169 19.94 165 19zM212 26.2a2.72 2.72 0 102.73 2.71A2.72 2.72 0 00212 26.2zm0 4.85a2.13 2.13 0 112.14-2.14v0A2.13 2.13 0 01212 31.05z" fill="#ffffff"/>
  <path d="M213.44,28.38a.89.89,0,0,0-.37-.78,1.57,1.57,0,0,0-.8-.15h-1.44v3h.65V29.22h.5l.63,1.2h.76l-.7-1.22h.09A.75.75,0,0,0,213.44,28.38Zm-1.13.3h-.84V28h.66c.34,0,.64,0,.64.34a.39.39,0,0,1-.09.29A.5.5,0,0,1,212.31,28.68Z" fill="#ffffff"/>
</svg>