<svg xmlns="http://www.w3.org/2000/svg" viewBox="0 0 208.26 124.86"><defs><style>.cls-1{fill:#fff;}.cls-2{fill:#ed1c2e;}</style></defs><g id="Layer_2" data-name="Layer 2"><path class="cls-1" d="M59,100.67l-.34.35c-5.57,5.71-12,8.72-18.71,8.72-13.92,0-24-10.44-24-24.83s10.1-24.84,24-24.84c6.67,0,13.14,3,18.71,8.73l.34.35,9-10.83L67.75,58C60.32,49.23,51.37,45,40.41,45S19.31,48.64,12,55.35C4.16,62.6,0,72.82,0,84.91s4.16,22.31,12,29.56c7.28,6.7,17.35,10.39,28.38,10.39s19.91-4.28,27.34-13.08l.24-.28Z"/><rect class="cls-1" x="77.03" y="46.2" width="15.8" height="77.18"/><path class="cls-1" d="M154.79,106.6c-4.21,2.57-8.15,3.86-11.69,3.86-5.12,0-7.4-2.68-7.4-8.7V60.81h16.08V46.28H135.7v-24l-15.51,8.31V46.28H106.82V60.81h13.37v43.56c0,11.87,7,20,17.53,20.19a24.59,24.59,0,0,0,14-3.55l.16-.1L155.71,106Z"/><rect class="cls-1" x="167.88" y="46.2" width="15.81" height="77.18"/><path class="cls-2" d="M193.64,33.71C180.45,14,156.1,0,130.09,0A78,78,0,0,0,66.53,33.71H84.7C97.1,20.94,113.18,14,130.09,14c16.61,0,32.95,7,45.37,19.73Z"/><path class="cls-1" d="M202.69,33.89a5.58,5.58,0,1,1,5.57-5.57A5.47,5.47,0,0,1,202.69,33.89Zm0-10.25a4.68,4.68,0,1,0,4.67,4.68A4.59,4.59,0,0,0,202.69,23.64Zm1.25,5.15,1.25,2.46H204l-1.19-2.35h-1.17v2.35h-1V25.17h2.67a1.78,1.78,0,0,1,2,1.83A1.72,1.72,0,0,1,203.94,28.79Zm-.73-2.62h-1.6V27.9h1.6c.56,0,1-.26,1-.86A.86.86,0,0,0,203.21,26.17Z"/></g></svg>