<?xml version="1.0" encoding="utf-8"?>
<!-- Generator: Adobe Illustrator 24.3.0, SVG Export Plug-In . SVG Version: 6.00 Build 0)  -->
<svg version="1.1" id="Layer_1" xmlns="http://www.w3.org/2000/svg" xmlns:xlink="http://www.w3.org/1999/xlink" x="0px" y="0px"
	 viewBox="0 0 440 415" style="enable-background:new 0 0 440 415;" xml:space="preserve">
<style type="text/css">
	.st0{fill:#FFFFFF;}
	.st1{fill:#DF1E38;}
</style>
<g>
	<path class="st0" d="M399.8,102.6L440,67.3L340,0.1v49.5c-25.9,3.1-114.2,13.5-174.5,21c-54.9,6.7-59.1,7.6-60.4,7.8
		c-20.9,4.1-42.5,15.4-60.9,31.9C25.9,126.7,12,147.2,5,167.9c-5.7,17-6.5,33.3-2.7,48.6c4.3,16.7,14.2,31.4,29.4,43.5
		c5.5,4.4,11.8,8.5,18.6,12.2l13.9,9.1l14.1,98.4c3.3,23.2,26.3,38.1,53.6,34.8l224.6-27.6c27.2-3.3,50.2-24,53.6-48l24.6-177.4
		c2.6-18.6-3.9-36.1-17.7-48.3C412.1,108.8,406.2,105.2,399.8,102.6z"/>
	<path class="st1" d="M132,407.1c-23.5,2.9-43.4-9.7-46.2-29.4L61.2,206.3c-2.3-15.7,3.4-32.4,15.6-46.2
		c12.9-14.6,31.8-24.3,51.8-26.8L360.1,105c20-2.5,38.9,2.7,51.8,14.1c12.2,10.7,17.9,26.1,15.6,42.3l-24.6,177.4
		c-2.8,20.3-22.7,37.9-46.2,40.7L132,407.1z"/>
	<path d="M360.1,118.1l-115,14.1l-1.3,0.1l-115,14.1c-31.8,3.9-56.6,30.3-52.8,56.5l24.6,171.4c1.9,13.2,15.5,21.7,31.6,19.7
		l111.7-13.7l1.3-0.1l111.7-13.7c16.1-2,29.7-13.8,31.6-27.5l24.6-177.4C416.6,134.5,391.9,114.2,360.1,118.1z"/>
	<g>
		<g>
			<path class="st1" d="M109.3,183.1l27.7-3.4v59.1l38.9-4.8v23.6l-66.5,8.2L109.3,183.1L109.3,183.1z"/>
		</g>
		<g>
			<path class="st1" d="M182.1,174.1l27.7-3.4v82.7l-27.7,3.4V174.1z"/>
		</g>
		<g>
			<path class="st1" d="M213.4,170.3l31-3.8l16,44.4l16-48.4l30.5-3.7l-33.6,87.4l-26.5,3.2L213.4,170.3z"/>
		</g>
		<g>
			<path class="st1" d="M308,158.7l70.5-8.7v22.7l-43.4,5.3v8.4l40.4-5v20l-40.4,5v9l44-5.4v22.7l-71.1,8.7V158.7z"/>
		</g>
	</g>
	<path class="st0" d="M109.8,311.1l9.4,51.5c1.7,9.1,13.4,14.6,27.5,12.8L347,350.8c10.1-1.2,18.7-7.3,19.9-14.1l10.7-58.5
		L109.8,311.1z"/>
	<path class="st1" d="M427.9,68.6l-80.5-54.1v41.6c0,0-229.1,27.1-241.8,29.6C35.7,99.3-33.6,198.2,36.8,253.9l0,0
		c5.2,4.1,11.2,8,18,11.7l14.1,9.2c-17.8-55.1-31-82.5,2.8-124c6.7-8.3,15-18.3,36.9-24.2c20.7-5.6,239.3-29.4,239.3-29.4v41.6
		L427.9,68.6z"/>
	<g>
		<path d="M128,325l16-2c11.3-1.4,19.7,4,19.7,15.5s-8.4,19-19.6,20.4l-16.1,2V325z M144.1,349.4c5.4-0.7,8.7-5.1,8.7-9.5
			c0-4.8-2.8-8.1-8.6-7.4l-5.2,0.6v17L144.1,349.4z"/>
		<path d="M182.5,342.7l-3.9,0.5v11.5l-10.9,1.3v-35.9l19.1-2.4c8.4-1,12.9,4,12.9,10.7c0,6.2-3.6,9.9-6.4,11.7l6.5,11.9l-12.4,1.5
			L182.5,342.7z M185.1,327l-6.6,0.8v6.3l6.6-0.8c1.8-0.2,3.5-1.6,3.5-3.6C188.7,327.8,187,326.8,185.1,327z"/>
		<path d="M204.1,315.6l10.9-1.3v35.9l-10.9,1.3V315.6z"/>
		<path d="M217,314l12.3-1.5l7.8,23.2l7.8-25.1l12.3-1.5l-13.2,37.6l-13.7,1.7L217,314z"/>
		<path d="M259.1,308.9l27.2-3.3v9.1l-16.3,2v4.2l16-2v9.1l-16,2v4.6l16.3-2v9.1l-27.2,3.3V308.9z"/>
		<path d="M289.8,323.9l12.9-1.6v8.1l-12.9,1.6V323.9z"/>
		<path d="M307.3,303l10.9-1.3v35.9l-10.9,1.3V303z"/>
		<path d="M334.9,316.2v19.3l-10.9,1.3v-35.9l11.2-1.4l12.5,16.5v-18.1l10.9-1.3v35.9l-10.4,1.3L334.9,316.2z"/>
	</g>
	<g>
		<g>
			<polygon class="st0" points="159.7,283.7 111.4,289.7 111.4,288.2 159.7,282.2 			"/>
			<polygon class="st0" points="159.7,292.2 128,296.1 128,294.6 159.7,290.7 			"/>
			<polygon class="st0" points="159.7,276.2 128,280.1 128,278.6 159.7,274.7 			"/>
		</g>
		<g>
			<polygon class="st0" points="330.8,262.2 379.1,256.2 379.1,257.7 330.8,263.6 			"/>
			<polygon class="st0" points="330.8,253.7 362.5,249.8 362.5,251.3 330.8,255.2 			"/>
			<polygon class="st0" points="330.8,269.7 362.5,265.8 362.5,267.3 330.8,271.2 			"/>
		</g>
	</g>
	<g>
		<path class="st0" d="M171.9,273.9l11.7-1.4v3l-8.2,1v3.6l8-1v3l-8,1v6.9l-3.5,0.4V273.9z"/>
		<path class="st0" d="M195.8,281.5l-2.6,0.3v5.9l-3.5,0.4v-16.4l7.7-0.9c3.4-0.4,5.5,1.6,5.5,4.6c0,2.9-1.8,4.7-3.6,5.3l3.7,5.8
			l-4,0.5L195.8,281.5z M196.9,273.9l-3.7,0.4v4.5l3.7-0.4c1.4-0.2,2.5-1.2,2.5-2.6S198.3,273.7,196.9,273.9z"/>
		<path class="st0" d="M217.1,268.1c5-0.6,8.6,2.5,8.6,7.5c0,5-3.6,9-8.6,9.6c-5,0.6-8.6-2.5-8.6-7.5
			C208.6,272.7,212.2,268.7,217.1,268.1z M217.1,271.2c-3.1,0.4-5,3-5,6c0,3.1,2,5.2,5,4.8c3-0.4,5-3,5-6
			C222.1,272.9,220.2,270.9,217.1,271.2z"/>
		<path class="st0" d="M246.3,269.4l-4.6,12.4l-1.5,0.2l-4.6-11.3v11.8L232,283v-16.5l4.9-0.6l4,9.8l4-10.8l4.9-0.6v16.5l-3.5,0.4
			V269.4z"/>
		<path class="st0" d="M270.6,264.9l-4.8,0.6v-3.1l13.1-1.6v3.1l-4.8,0.6v13.4l-3.5,0.4V264.9z"/>
		<path class="st0" d="M296.1,268.3l-7.8,0.9v6.9l-3.5,0.4V260l3.5-0.4v6.4l7.8-0.9v-6.4l3.5-0.4v16.5l-3.5,0.4V268.3z"/>
		<path class="st0" d="M306.6,257.4l11.7-1.4v3l-8.2,1v3.6l8-1v3l-8,1v3.8l8.2-1v3.1l-11.7,1.4V257.4z"/>
	</g>
</g>
</svg>
