<svg xmlns="http://www.w3.org/2000/svg" viewBox="0 0 781.5 166.4">
  <defs/>
  <path fill="#fff" d="M6.34 7.04H775.34V160.04H6.34z"/>
  <path fill="#e21836" d="M167.7 269.8h24.78v52.95h34.84v21.18H167.7zM232.94 269.8h24.77v74.13H232.94zM261 269.8h27.74l14.4 41.62 14.4-41.62h27.33l-30.08 74.66H291.07zM345.82 269.8H409v20.33H370.18v7.52h36.21v17.9H370.18v8.05h39.39v20.33H345.82z" class="cls-2" transform="translate(-112.66 -223.96)"/>
  <path d="M438.9,269.8h23.19l26.37,32.72V269.8H513v74.13H491l-27.53-34.21v34.21H438.9Z" transform="translate(-112.66 -223.96)"/>
  <path d="M543.1 269.27h24.57l31.24 74.66H572L568.09 334H542.15l-3.81 9.95H511.86zM562 316.4l-6.77-18-6.78 18zM602.93 290.77H581.12v-21h68.41v21H627.71v53.16H602.93zM653.23 269.8H678v74.13H653.23zM682.88 307.08v-.21c0-21.5 17.69-38.66 40.56-38.66s40.35 17 40.35 38.44v.22c0 21.49-17.69 38.65-40.56 38.65S682.88 328.57 682.88 307.08zm55.92 0v-.21c0-8.79-6-16.74-15.57-16.74s-15.35 7.84-15.35 16.52v.22c0 8.79 6 16.73 15.56 16.73S738.8 315.76 738.8 307.08zM766.33 269.8h23.19l26.37 32.72V269.8h24.57v74.13h-22L790.9 309.72v34.21H766.33z" transform="translate(-112.66 -223.96)"/>
  <path fill="#000000" d="M894.16,390.37H112.66V224h781.5ZM129.09,373.94H877.72V240.4H129.09Z" class="cls-2" transform="translate(-112.66 -223.96)"/>
  <path d="M852.58,275.55v0a5.84,5.84,0,0,1,11.68,0v0a5.84,5.84,0,0,1-11.68,0Zm11,0v0a5.16,5.16,0,1,0-10.32,0v0a5.16,5.16,0,1,0,10.32,0ZM856,272.24h2.75a2.59,2.59,0,0,1,1.92.68,1.86,1.86,0,0,1,.52,1.35v0a1.94,1.94,0,0,1-1.34,1.92l1.52,2.22h-1.6l-1.32-2h-1.08v2H856Zm2.74,3c.69,0,1.06-.37,1.06-.88v0c0-.59-.42-.9-1.09-.9h-1.34v1.82Z" transform="translate(-112.66 -223.96)"/>
</svg>