<svg id="Layer_1" data-name="Layer 1" xmlns="http://www.w3.org/2000/svg" xmlns:xlink="http://www.w3.org/1999/xlink" viewBox="0 0 107.5 107.5"><defs><style>.cls-1,.cls-2,.cls-8{fill:none;}.cls-2{clip-rule:evenodd;}.cls-3{clip-path:url(#clip-path);}.cls-4{clip-path:url(#clip-path-2);}.cls-5{isolation:isolate;}.cls-6{clip-path:url(#clip-path-3);}.cls-7{clip-path:url(#clip-path-5);}.cls-8{stroke:#e21836;stroke-miterlimit:10;stroke-width:7.5px;}.cls-9{clip-path:url(#clip-path-7);}.cls-10{fill:#fff;}.cls-11{clip-path:url(#clip-path-9);}.cls-12{clip-path:url(#clip-path-11);}.cls-13{clip-path:url(#clip-path-12);}.cls-14{clip-path:url(#clip-path-13);}.cls-15{clip-path:url(#clip-path-14);}</style><clipPath id="clip-path" transform="translate(3.75 3.75)"><circle class="cls-1" cx="50" cy="50" r="50"/></clipPath><clipPath id="clip-path-2" transform="translate(3.75 3.75)"><rect class="cls-1" x="-590" y="-3217.5" width="1280" height="5515"/></clipPath><clipPath id="clip-path-3" transform="translate(3.75 3.75)"><rect class="cls-1" x="-37.5" y="-37.5" width="175" height="175"/></clipPath><clipPath id="clip-path-5" transform="translate(3.75 3.75)"><rect class="cls-1" width="100" height="100"/></clipPath><clipPath id="clip-path-7" transform="translate(3.75 3.75)"><path class="cls-2" d="M39.69,48.75H61.56a2.52,2.52,0,0,0,0-5H39.69a2.52,2.52,0,0,0,0,5"/></clipPath><clipPath id="clip-path-9" transform="translate(3.75 3.75)"><path class="cls-2" d="M39.69,57.5H61.56a2.52,2.52,0,0,0,0-5H39.69a2.52,2.52,0,0,0,0,5"/></clipPath><clipPath id="clip-path-11" transform="translate(3.75 3.75)"><rect class="cls-1" x="15" y="35.09" width="71.16" height="31.16"/></clipPath><clipPath id="clip-path-12" transform="translate(3.75 3.75)"><rect class="cls-1" x="13.75" y="35" width="72.5" height="32.5"/></clipPath><clipPath id="clip-path-13" transform="translate(3.75 3.75)"><path class="cls-2" d="M86.16,50.67a11.15,11.15,0,0,0-8.9-10.91V37.31a2.23,2.23,0,0,0-.65-1.57A2.19,2.19,0,0,0,75,35.09H26.12a2.22,2.22,0,0,0-2.22,2.22v2.45a11.13,11.13,0,0,0,0,21.81V64a2.23,2.23,0,0,0,.65,1.57,2.19,2.19,0,0,0,1.57.65H75a2.19,2.19,0,0,0,1.57-.65A2.23,2.23,0,0,0,77.26,64V61.57A11.13,11.13,0,0,0,86.16,50.67Zm-66.71,0A6.67,6.67,0,0,1,23.9,44.4V56.94h0A6.67,6.67,0,0,1,19.45,50.67ZM28.34,61.8H72.82V39.54H28.34Zm48.92-4.86V44.4a6.64,6.64,0,0,1,0,12.54Z"/></clipPath><clipPath id="clip-path-14" transform="translate(3.75 3.75)"><rect class="cls-1" x="15" y="35" width="71.25" height="32.5"/></clipPath></defs><circle cx="53.75" cy="53.75" r="49"/><g class="cls-3"><g class="cls-4"><g class="cls-5"><g class="cls-6"><g class="cls-3"><g class="cls-7"><circle cx="53.75" cy="53.75" r="50"/></g></g><g class="cls-7"><circle class="cls-8" cx="53.75" cy="53.75" r="50"/></g></g></g></g></g><g class="cls-9"><g class="cls-4"><rect class="cls-10" x="35" y="41.25" width="38.75" height="17.5"/></g></g><g class="cls-11"><g class="cls-4"><rect class="cls-10" x="35" y="50" width="38.75" height="17.5"/></g></g><g class="cls-12"><g class="cls-5"><g class="cls-13"><g class="cls-14"><g class="cls-15"><rect class="cls-10" x="12.5" y="32.59" width="83.66" height="43.66"/></g></g></g></g></g></svg>