<?xml version="1.0" encoding="utf-8"?>
<!-- Generator: Adobe Illustrator 24.1.2, SVG Export Plug-In . SVG Version: 6.00 Build 0)  -->
<svg version="1.1" id="Layer_1" xmlns="http://www.w3.org/2000/svg" xmlns:xlink="http://www.w3.org/1999/xlink" x="0px" y="0px"
	 viewBox="0 0 100 100" style="enable-background:new 0 0 100 100;" xml:space="preserve">
<style type="text/css">
	.st0{clip-path:url(#SVGID_2_);}
	.st1{clip-path:url(#SVGID_4_);enable-background:new    ;}
	.st2{clip-path:url(#SVGID_6_);}
	.st3{clip-path:url(#SVGID_8_);fill:none;stroke:#E21836;stroke-width:7.5;stroke-miterlimit:10;}
	.st4{clip-path:url(#SVGID_10_);enable-background:new    ;}
	.st5{clip-path:url(#SVGID_12_);}
	.st6{clip-path:url(#SVGID_14_);}
	.st7{clip-path:url(#SVGID_16_);fill:#FFFFFF;}
	.st8{clip-path:url(#SVGID_18_);enable-background:new    ;}
	.st9{clip-path:url(#SVGID_20_);}
	.st10{clip-path:url(#SVGID_22_);}
	.st11{clip-path:url(#SVGID_24_);fill:#E12236;}
</style>
<circle cx="50" cy="50" r="49"/>
<g>
	<g>
		<defs>
			<circle id="SVGID_1_" cx="50" cy="50" r="50"/>
		</defs>
		<clipPath id="SVGID_2_">
			<use xlink:href="#SVGID_1_"  style="overflow:visible;"/>
		</clipPath>
		<g class="st0">
			<defs>
				<rect id="SVGID_3_" x="-590" y="-2992.5" width="1280" height="5515"/>
			</defs>
			<clipPath id="SVGID_4_">
				<use xlink:href="#SVGID_3_"  style="overflow:visible;"/>
			</clipPath>
			<g class="st1">
				<g>
					<defs>
						<rect id="SVGID_5_" x="-37.5" y="-37.5" width="175" height="175"/>
					</defs>
					<clipPath id="SVGID_6_">
						<use xlink:href="#SVGID_5_"  style="overflow:visible;"/>
					</clipPath>
					<g class="st2">
						<defs>
							<rect id="SVGID_7_" width="100" height="100"/>
						</defs>
						<clipPath id="SVGID_8_">
							<use xlink:href="#SVGID_7_"  style="overflow:visible;"/>
						</clipPath>
						<circle class="st3" cx="50" cy="50" r="50"/>
					</g>
				</g>
			</g>
		</g>
	</g>
	<g>
		<defs>
			<rect id="SVGID_9_" x="32.8" y="16.3" width="34.8" height="66.2"/>
		</defs>
		<clipPath id="SVGID_10_">
			<use xlink:href="#SVGID_9_"  style="overflow:visible;"/>
		</clipPath>
		<g class="st4">
			<g>
				<defs>
					<rect id="SVGID_11_" x="32.5" y="16.2" width="36.2" height="67.5"/>
				</defs>
				<clipPath id="SVGID_12_">
					<use xlink:href="#SVGID_11_"  style="overflow:visible;"/>
				</clipPath>
				<g class="st5">
					<defs>
						<path id="SVGID_13_" d="M64.6,74.3v4.5c0,0.4-0.4,0.8-0.8,0.8l-27.1,0c-0.5,0-0.8-0.4-0.8-0.8l0-58.9c0-0.3,0.2-0.5,0.6-0.5
							h4.3c0.3,1.7,1.5,3,3,3h13.1c1.5,0,2.8-1.3,3-3h4c0.5,0,0.8,0.4,0.8,0.8v13.8c1,0.1,2,0.2,3,0.4l0-14.2c0-2.1-1.7-3.7-3.8-3.7
							H36.3c-2,0-3.6,1.6-3.6,3.5v58.9c0,2.1,1.7,3.7,3.8,3.7h27.1c2.1,0,3.8-1.7,3.8-3.7v-4.9C66.6,74.1,65.6,74.2,64.6,74.3
							L64.6,74.3z M54.6,19.5c0.3,0,0.6,0.2,0.6,0.6c0,0.3-0.3,0.6-0.6,0.6c-0.3,0-0.6-0.2-0.6-0.6C54,19.7,54.3,19.5,54.6,19.5z
							 M45.2,19.5h7.1c0.3,0,0.6,0.2,0.6,0.6c0,0.3-0.3,0.6-0.6,0.6h-7.1c-0.3,0-0.6-0.2-0.6-0.6C44.6,19.7,44.9,19.5,45.2,19.5z"/>
					</defs>
					<clipPath id="SVGID_14_">
						<use xlink:href="#SVGID_13_"  style="overflow:visible;"/>
					</clipPath>
					<g class="st6">
						<defs>
							<rect id="SVGID_15_" x="32.5" y="16.2" width="36.2" height="66.2"/>
						</defs>
						<clipPath id="SVGID_16_">
							<use xlink:href="#SVGID_15_"  style="overflow:visible;"/>
						</clipPath>
						<rect x="26.5" y="10.1" class="st7" width="47.3" height="78.7"/>
					</g>
				</g>
			</g>
		</g>
	</g>
	<g>
		<defs>
			<rect id="SVGID_17_" x="44.7" y="36.7" width="35.1" height="35.1"/>
		</defs>
		<clipPath id="SVGID_18_">
			<use xlink:href="#SVGID_17_"  style="overflow:visible;"/>
		</clipPath>
		<g class="st8">
			<g>
				<defs>
					<rect id="SVGID_19_" x="43.8" y="36.2" width="36.2" height="36.2"/>
				</defs>
				<clipPath id="SVGID_20_">
					<use xlink:href="#SVGID_19_"  style="overflow:visible;"/>
				</clipPath>
				<g class="st9">
					<defs>
						<path id="SVGID_21_" d="M44.7,54.3c0,9.7,7.9,17.5,17.5,17.5c9.7,0,17.5-7.9,17.5-17.5c0-9.7-7.9-17.5-17.5-17.5
							C52.6,36.7,44.7,44.6,44.7,54.3 M63.9,47.4l6.3,6.3c0.3,0.3,0.3,0.8,0,1.1l-6.3,6.3c-0.3,0.3-0.8,0.3-1.1,0l-2.3-2.3
							c-0.3-0.3-0.3-0.8,0-1.1l1.2-1.2h-6.8c-0.4,0-0.8-0.3-0.8-0.8v-3.2c0-0.4,0.3-0.8,0.8-0.8h6.8l-1.2-1.2
							c-0.3-0.3-0.3-0.8,0-1.1l2.3-2.3C63.1,47.1,63.6,47.1,63.9,47.4"/>
					</defs>
					<clipPath id="SVGID_22_">
						<use xlink:href="#SVGID_21_"  style="overflow:visible;"/>
					</clipPath>
					<g class="st10">
						<defs>
							<rect id="SVGID_23_" x="43.8" y="36.2" width="36.2" height="36.2"/>
						</defs>
						<clipPath id="SVGID_24_">
							<use xlink:href="#SVGID_23_"  style="overflow:visible;"/>
						</clipPath>
						<rect x="38.5" y="30.5" class="st11" width="47.6" height="47.6"/>
					</g>
				</g>
			</g>
		</g>
	</g>
</g>
</svg>
