<svg id="Layer_1" data-name="Layer 1" xmlns="http://www.w3.org/2000/svg" xmlns:xlink="http://www.w3.org/1999/xlink" viewBox="0 0 107.5 107.5"><defs><style>.cls-1,.cls-2,.cls-8{fill:none;}.cls-2{clip-rule:evenodd;}.cls-3{clip-path:url(#clip-path);}.cls-4{clip-path:url(#clip-path-2);}.cls-5{isolation:isolate;}.cls-6{clip-path:url(#clip-path-3);}.cls-7{clip-path:url(#clip-path-5);}.cls-8{stroke:#e21836;stroke-miterlimit:10;stroke-width:7.5px;}.cls-9{clip-path:url(#clip-path-7);}.cls-10{clip-path:url(#clip-path-8);}.cls-11{clip-path:url(#clip-path-9);}.cls-12{clip-path:url(#clip-path-10);}.cls-13{fill:#fff;}.cls-14{clip-path:url(#clip-path-11);}.cls-15{clip-path:url(#clip-path-12);}.cls-16{clip-path:url(#clip-path-13);}.cls-17{clip-path:url(#clip-path-14);}.cls-18{clip-path:url(#clip-path-15);}.cls-19{fill:#e21836;}.cls-20{clip-path:url(#clip-path-17);}</style><clipPath id="clip-path" transform="translate(3.75 3.75)"><circle class="cls-1" cx="50" cy="50" r="50"/></clipPath><clipPath id="clip-path-2" transform="translate(3.75 3.75)"><rect class="cls-1" x="-590" y="-3722.5" width="1280" height="5515"/></clipPath><clipPath id="clip-path-3" transform="translate(3.75 3.75)"><rect class="cls-1" x="-37.5" y="-37.5" width="175" height="175"/></clipPath><clipPath id="clip-path-5" transform="translate(3.75 3.75)"><rect class="cls-1" width="100" height="100"/></clipPath><clipPath id="clip-path-7" transform="translate(3.75 3.75)"><rect class="cls-1" x="17.5" y="24.09" width="22.85" height="50.91"/></clipPath><clipPath id="clip-path-8" transform="translate(3.75 3.75)"><rect class="cls-1" x="16.25" y="23.75" width="25" height="52.5"/></clipPath><clipPath id="clip-path-9" transform="translate(3.75 3.75)"><path class="cls-2" d="M34.22,36.65a7.57,7.57,0,0,0,1.4-8.06,7.22,7.22,0,0,0-13.38,0,7.59,7.59,0,0,0,1.41,8.06,8.39,8.39,0,0,0-6.15,8.13V55.46a4.26,4.26,0,0,0,4.2,4.3h.74V71.08A3.89,3.89,0,0,0,26.27,75h5.31a3.88,3.88,0,0,0,3.83-3.92V59.76h.74a4.26,4.26,0,0,0,4.2-4.3V44.78a8.39,8.39,0,0,0-6.13-8.13Zm-5.29-9.78a4.57,4.57,0,0,1,4.22,2.88,4.75,4.75,0,0,1-1,5.1,4.51,4.51,0,0,1-5,1,4.67,4.67,0,0,1-2.82-4.32A4.62,4.62,0,0,1,28.93,26.87Zm8.72,28.59A1.52,1.52,0,0,1,36.15,57h-.74V43.75a1.35,1.35,0,1,0-2.7,0V71.08a1.14,1.14,0,0,1-.33.81,1.1,1.1,0,0,1-.8.34h-1.3V61.49a1.36,1.36,0,1,0-2.71,0V72.23h-1.3a1.13,1.13,0,0,1-1.12-1.15V43.75a1.36,1.36,0,1,0-2.71,0V57H21.7a1.52,1.52,0,0,1-1.49-1.53V44.78a5.59,5.59,0,0,1,5.52-5.62h6.41a5.59,5.59,0,0,1,5.52,5.64Z"/></clipPath><clipPath id="clip-path-10" transform="translate(3.75 3.75)"><rect class="cls-1" x="16.25" y="23.75" width="25" height="51.25"/></clipPath><clipPath id="clip-path-11" transform="translate(3.75 3.75)"><rect class="cls-1" x="59.48" y="24.09" width="22.85" height="50.91"/></clipPath><clipPath id="clip-path-12" transform="translate(3.75 3.75)"><rect class="cls-1" x="58.75" y="23.75" width="23.75" height="52.5"/></clipPath><clipPath id="clip-path-13" transform="translate(3.75 3.75)"><path class="cls-2" d="M76.19,36.65a7.57,7.57,0,0,0,1.41-8.06,7.22,7.22,0,0,0-13.38,0,7.59,7.59,0,0,0,1.41,8.06,8.38,8.38,0,0,0-6.15,8.13V55.46a4.26,4.26,0,0,0,4.2,4.3h.74V71.08A3.88,3.88,0,0,0,68.25,75h5.3a3.89,3.89,0,0,0,3.84-3.92V59.76h.73a4.28,4.28,0,0,0,4.21-4.3V44.78A8.4,8.4,0,0,0,76.19,36.65Zm-5.28-9.78a4.57,4.57,0,0,1,4.22,2.88,4.75,4.75,0,0,1-1,5.1,4.51,4.51,0,0,1-5,1,4.67,4.67,0,0,1-2.82-4.32A4.62,4.62,0,0,1,70.91,26.87Zm8.72,28.59A1.52,1.52,0,0,1,78.13,57h-.74V43.75a1.36,1.36,0,1,0-2.71,0V71.08a1.13,1.13,0,0,1-.32.81,1.12,1.12,0,0,1-.8.34h-1.3V61.49a1.36,1.36,0,1,0-2.71,0V72.23h-1.3a1.13,1.13,0,0,1-1.12-1.15V43.75a1.36,1.36,0,1,0-2.71,0V57h-.74a1.52,1.52,0,0,1-1.49-1.53V44.78a5.58,5.58,0,0,1,5.51-5.62h6.42a5.6,5.6,0,0,1,5.52,5.64Z"/></clipPath><clipPath id="clip-path-14" transform="translate(3.75 3.75)"><rect class="cls-1" x="58.75" y="23.75" width="23.75" height="51.25"/></clipPath><clipPath id="clip-path-15" transform="translate(3.75 3.75)"><path class="cls-2" d="M45.94,41.34h5.44l-1.27,1.72a1.44,1.44,0,0,0,.26,2,1.32,1.32,0,0,0,1.9-.27l2.95-4h0a2,2,0,0,0,.11-.2v0a2,2,0,0,0,.08-.26v-.13a2.67,2.67,0,0,0,0-.4v-.12a2.29,2.29,0,0,0-.08-.28v-.05a1.28,1.28,0,0,0-.11-.2l-2.94-4h0a1.32,1.32,0,0,0-1.9-.26,1.44,1.44,0,0,0-.26,2l1.27,1.69H45.94a1.39,1.39,0,0,0-1.36,1.41,1.5,1.5,0,0,0,.39,1,1.39,1.39,0,0,0,1,.42"/></clipPath><clipPath id="clip-path-17" transform="translate(3.75 3.75)"><path class="cls-2" d="M54.06,56.08H48.61l1.28-1.73a1.46,1.46,0,0,0-.25-2,1.33,1.33,0,0,0-1.91.27l-2.95,4h0l-.11.19v.05a2,2,0,0,0-.08.26v.13a2.67,2.67,0,0,0,0,.4v.13a2.58,2.58,0,0,0,.08.26v0a1.28,1.28,0,0,0,.11.2l2.95,4h0a1.32,1.32,0,0,0,1.91.26,1.46,1.46,0,0,0,.52-.94,1.43,1.43,0,0,0-.27-1l-1.28-1.66h5.45a1.33,1.33,0,0,0,1-.42,1.45,1.45,0,0,0,.4-1,1.5,1.5,0,0,0-.39-1,1.35,1.35,0,0,0-1-.42"/></clipPath></defs><circle cx="53.75" cy="53.75" r="49"/><g class="cls-3"><g class="cls-4"><g class="cls-5"><g class="cls-6"><g class="cls-3"><g class="cls-7"><circle cx="53.75" cy="53.75" r="50"/></g></g><g class="cls-7"><circle class="cls-8" cx="53.75" cy="53.75" r="50"/></g></g></g></g></g><g class="cls-9"><g class="cls-5"><g class="cls-10"><g class="cls-11"><g class="cls-12"><rect class="cls-13" x="15" y="21.59" width="35.35" height="63.41"/></g></g></g></g></g><g class="cls-14"><g class="cls-5"><g class="cls-15"><g class="cls-16"><g class="cls-17"><rect class="cls-13" x="56.98" y="21.59" width="35.35" height="63.41"/></g></g></g></g></g><g class="cls-18"><g class="cls-4"><rect class="cls-19" x="42.08" y="32.04" width="23.33" height="23.29"/></g></g><g class="cls-20"><g class="cls-4"><rect class="cls-19" x="42.08" y="49.57" width="23.33" height="23.29"/></g></g></svg>