<svg id="Layer_1" data-name="Layer 1" xmlns="http://www.w3.org/2000/svg" xmlns:xlink="http://www.w3.org/1999/xlink" viewBox="0 0 107.5 107.5"><defs><style>.cls-1,.cls-2,.cls-8{fill:none;}.cls-2{clip-rule:evenodd;}.cls-3{clip-path:url(#clip-path);}.cls-4{clip-path:url(#clip-path-2);}.cls-5{isolation:isolate;}.cls-6{clip-path:url(#clip-path-3);}.cls-7{clip-path:url(#clip-path-5);}.cls-8{stroke:#e21836;stroke-miterlimit:10;stroke-width:7.5px;}.cls-9{clip-path:url(#clip-path-7);}.cls-10{clip-path:url(#clip-path-8);}.cls-11{clip-path:url(#clip-path-9);}.cls-12{clip-path:url(#clip-path-10);}.cls-13{fill:#fff;}.cls-14{clip-path:url(#clip-path-11);}.cls-15{fill:#e21836;}.cls-16{clip-path:url(#clip-path-13);}.cls-17{clip-path:url(#clip-path-15);}.cls-18{clip-path:url(#clip-path-16);}.cls-19{clip-path:url(#clip-path-17);}.cls-20{clip-path:url(#clip-path-19);}</style><clipPath id="clip-path" transform="translate(3.75 3.75)"><circle class="cls-1" cx="50" cy="50" r="50"/></clipPath><clipPath id="clip-path-2" transform="translate(3.75 3.75)"><rect class="cls-1" x="-590" y="-3470" width="1280" height="5515"/></clipPath><clipPath id="clip-path-3" transform="translate(3.75 3.75)"><rect class="cls-1" x="-37.5" y="-37.5" width="175" height="175"/></clipPath><clipPath id="clip-path-5" transform="translate(3.75 3.75)"><rect class="cls-1" width="100" height="100"/></clipPath><clipPath id="clip-path-7" transform="translate(3.75 3.75)"><rect class="cls-1" x="13.16" y="27.75" width="73.06" height="54.75"/></clipPath><clipPath id="clip-path-8" transform="translate(3.75 3.75)"><rect class="cls-1" x="12.5" y="27.5" width="75" height="56.25"/></clipPath><clipPath id="clip-path-9" transform="translate(3.75 3.75)"><path class="cls-2" d="M85.61,66.54,79.8,62.77a27.35,27.35,0,0,0-3.58-9.16c-.69-1.12-1.4-2.55-2.09-3.93-1.19-2.41-2.32-4.68-3.59-5.78-1.67-1.49-3.61-1.73-5.17-.65a4,4,0,0,0-1.61,4.51c.06.17.3.73.57,1.43l-5-3.07a3.67,3.67,0,0,0-1-1.78,4.43,4.43,0,0,0-1.14-.79l.18-.19c1-1.19,2.32-4,.06-6.15a4.31,4.31,0,0,0-1.26-.85,5,5,0,0,0,.72-2.31,4,4,0,0,0-1.31-3,4.12,4.12,0,0,0-3-1.19,4.89,4.89,0,0,0-2.18.66,4.1,4.1,0,0,0-1.08-1.68,3.75,3.75,0,0,0-2.79-1.08,6.4,6.4,0,0,0-4,2.16L29.85,42.85c.11-.76.19-1.36.21-1.54a4,4,0,0,0-2.68-4c-1.77-.66-3.59.06-4.85,1.91-1,1.39-1.48,3.87-2.05,6.49-.32,1.5-.66,3.06-1.05,4.33a27.43,27.43,0,0,0-1.2,9.76l-4.71,5.09a1.34,1.34,0,0,0,0,1.87L24.67,77.87a1.35,1.35,0,0,0,1.91,0l5.47-5.53a12.4,12.4,0,0,0,8.59-3.91c.77-.78,1.6-1.64,2.45-2.53l5.55,3.49c.07,0,6.87,4.44,11.53,7.28a12.38,12.38,0,0,0,9.29,1.65l6.67,4a1.28,1.28,0,0,0,.69.19,1.12,1.12,0,0,0,.32,0,1.42,1.42,0,0,0,.84-.62l8-13.47a1.34,1.34,0,0,0-.41-1.83Zm-46.88,0a9.37,9.37,0,0,1-7.08,3.08,1.37,1.37,0,0,0-1.1.39l-4.93,5L16.39,65.8l4.23-4.58A1.35,1.35,0,0,0,21,60.15a24.51,24.51,0,0,1,1-9.26c.44-1.38.78-3,1.12-4.58.46-2.15,1-4.58,1.64-5.53s1.11-1.12,1.69-.91A1.52,1.52,0,0,1,27.4,41c0,.39-.5,3.53-.8,5.56a1.35,1.35,0,0,0,2.3,1.15L44.46,31.76a3.84,3.84,0,0,1,2.14-1.29,1,1,0,0,1,.81.34,1.13,1.13,0,0,1,.42.83,3.63,3.63,0,0,1-1.11,2.09l-9.94,11a1.36,1.36,0,0,0,2,1.83L50.42,33.89l0,0a3.7,3.7,0,0,1,2.17-1.3,1.4,1.4,0,0,1,1,.45,1.23,1.23,0,0,1,.47,1,3.67,3.67,0,0,1-1.23,2.1.24.24,0,0,0-.1.1l-1.2,1.25,0,0L41,48.65a1.35,1.35,0,0,0,2,1.86l10.6-11.19a1.34,1.34,0,0,1,2-.16c1,.91-.14,2.29-.21,2.38L44.73,52.71a1.36,1.36,0,0,0,.05,1.91,1.33,1.33,0,0,0,1.9,0L54.82,46a1.29,1.29,0,0,1,1.59.26,1.13,1.13,0,0,1,0,1.55l-8.38,8.82c0,.07-5.53,6-9.32,9.87ZM76.37,79.3l-6-3.6a1.28,1.28,0,0,0-.69-.19,1.55,1.55,0,0,0-.47.08,9.38,9.38,0,0,1-7.62-1.24c-4.63-2.81-11.4-7.19-11.49-7.24L45,63.9c.6-.62,1.17-1.23,1.71-1.81l4.22,2.66a1.36,1.36,0,0,0,1.86-.43,1.34,1.34,0,0,0-.42-1.86l-3.77-2.37c.87-.93,1.43-1.53,1.43-1.54l.54-.56,3,1.89A1.35,1.35,0,0,0,55,57.59L52.45,56l2.17-2.3,2,1.28a1.35,1.35,0,0,0,1.47-2.27l-1.53-1,1.91-2a4.28,4.28,0,0,0,.41-.63l7.61,4.64A1.34,1.34,0,0,0,68,53.54,1.37,1.37,0,0,0,68.41,52c-.79-1.88-2-4.82-2.15-5.17a1.46,1.46,0,0,1,.63-1.34c.49-.34,1.12-.19,1.86.45s2,3,3,5c.71,1.44,1.45,2.92,2.22,4.15a24.64,24.64,0,0,1,3.29,8.73,1.35,1.35,0,0,0,.6.95L83,68.11Z"/></clipPath><clipPath id="clip-path-10" transform="translate(3.75 3.75)"><rect class="cls-1" x="12.5" y="27.5" width="73.75" height="56.25"/></clipPath><clipPath id="clip-path-11" transform="translate(3.75 3.75)"><path class="cls-2" d="M36.29,23.75a4.48,4.48,0,1,1,.32,0A1.67,1.67,0,0,1,36.29,23.75Zm0-6.86h-.18a2.44,2.44,0,1,0,.18,0Z"/></clipPath><clipPath id="clip-path-13" transform="translate(3.75 3.75)"><path class="cls-2" d="M63.78,37.5A4.36,4.36,0,1,1,67.1,36a4.32,4.32,0,0,1-3,1.5h-.33m0-6.58h-.17a2.17,2.17,0,0,0-1.5.76,2.12,2.12,0,0,0-.53,1.6,2.24,2.24,0,0,0,.76,1.52,2.16,2.16,0,0,0,1.6.53,2.28,2.28,0,0,0,1.52-.76A2.2,2.2,0,0,0,66,33a2.24,2.24,0,0,0-2.21-2"/></clipPath><clipPath id="clip-path-15" transform="translate(3.75 3.75)"><rect class="cls-1" x="53.7" y="13.27" width="6.54" height="6.54"/></clipPath><clipPath id="clip-path-16" transform="translate(3.75 3.75)"><rect class="cls-1" x="52.5" y="12.5" width="8.75" height="7.5"/></clipPath><clipPath id="clip-path-17" transform="translate(3.75 3.75)"><path class="cls-2" d="M57,19.81a3.27,3.27,0,0,1-3.26-3,3.19,3.19,0,0,1,.79-2.37,3.27,3.27,0,0,1,2.23-1.13,3.23,3.23,0,0,1,2.37.79,3.26,3.26,0,0,1-1.89,5.73Zm0-4.57h-.09a1.33,1.33,0,0,0-.9.45,1.24,1.24,0,0,0-.31.94,1.32,1.32,0,0,0,1.39,1.2,1.25,1.25,0,0,0,.88-.44,1.27,1.27,0,0,0,.32-.95,1.33,1.33,0,0,0-.45-.89A1.28,1.28,0,0,0,57,15.24Z"/></clipPath><clipPath id="clip-path-19" transform="translate(3.75 3.75)"><path class="cls-2" d="M70,23.75A3.17,3.17,0,0,1,68,23a3.12,3.12,0,0,1-.31-4.41,3.08,3.08,0,0,1,2.13-1.07,3,3,0,0,1,2.27.76,3,3,0,0,1,1.07,2.13,3.09,3.09,0,0,1-.75,2.27,3.12,3.12,0,0,1-2.14,1.07H70m0-4.38H70a1.24,1.24,0,0,0-.86.43,1.24,1.24,0,0,0,.13,1.75,1.24,1.24,0,0,0,.9.31,1.28,1.28,0,0,0,.86-.43,1.29,1.29,0,0,0,.3-.9A1.24,1.24,0,0,0,70,19.37"/></clipPath></defs><circle cx="53.75" cy="53.75" r="49"/><g class="cls-3"><g class="cls-4"><g class="cls-5"><g class="cls-6"><g class="cls-3"><g class="cls-7"><circle cx="53.75" cy="53.75" r="50"/></g></g><g class="cls-7"><circle class="cls-8" cx="53.75" cy="53.75" r="50"/></g></g></g></g></g><g class="cls-9"><g class="cls-5"><g class="cls-10"><g class="cls-11"><g class="cls-12"><rect class="cls-13" x="10.66" y="25.25" width="85.56" height="67.25"/></g></g></g></g></g><g class="cls-14"><g class="cls-4"><rect class="cls-15" x="29.41" y="12.5" width="21.25" height="21.25"/></g></g><g class="cls-16"><g class="cls-4"><rect class="cls-15" x="56.91" y="26.25" width="21.25" height="21.25"/></g></g><g class="cls-17"><g class="cls-5"><g class="cls-18"><g class="cls-19"><g class="cls-18"><rect class="cls-15" x="51.2" y="10.77" width="19.04" height="19.04"/></g></g></g></g></g><g class="cls-20"><g class="cls-4"><rect class="cls-15" x="64.41" y="15" width="18.75" height="18.75"/></g></g></svg>