<svg xmlns="http://www.w3.org/2000/svg" viewBox="0 0 100 100"><defs><style>.cls-1{fill:#e21836;}.cls-2{fill:#fff;}</style></defs><g id="Layer_2" data-name="Layer 2"><g id="Layer_1-2" data-name="Layer 1"><circle cx="50" cy="50" r="48.13"/><path class="cls-1" d="M50,3.75A46.25,46.25,0,1,1,3.75,50,46.31,46.31,0,0,1,50,3.75M50,0a50,50,0,1,0,50,50A50,50,0,0,0,50,0Z"/><path class="cls-1" d="M43.35,62.18a4.55,4.55,0,0,1-.17-2.25,11.59,11.59,0,0,1,1.46-5.18,17.89,17.89,0,0,1,3.09-4,25.83,25.83,0,0,1,3.86-3.1l3.68-2.42A18.13,18.13,0,0,0,61,40.46a5.82,5.82,0,0,0,1.29-3.88,2.12,2.12,0,0,0-.95-1.6,3.21,3.21,0,0,0-1.69-.48,6.33,6.33,0,0,0-2.56.56,16.27,16.27,0,0,0-2.53,1.44c-.84.58-1.71,1.23-2.59,2s-1.77,1.45-2.67,2.16a8.33,8.33,0,0,1-4.92,1.83,12.56,12.56,0,0,1-5.77-1,3.82,3.82,0,0,1-1.21-.7,2,2,0,0,1-.62-1,2.91,2.91,0,0,1,.2-1.55,11.86,11.86,0,0,1,1.24-2.27,27.19,27.19,0,0,1,6.55-7,19.42,19.42,0,0,1,8.13-3.54A16.44,16.44,0,0,1,58,25.11a16.65,16.65,0,0,1,4.47,1.12,15.23,15.23,0,0,1,3.66,2.11A15,15,0,0,1,68.77,31a15.76,15.76,0,0,1,3,5.29,11.74,11.74,0,0,1,.51,4.75A10.63,10.63,0,0,1,71,45.13a17.07,17.07,0,0,1-2.27,3.21,16,16,0,0,1-2.79,2.39c-1,.69-2.1,1.37-3.21,2s-2.2,1.32-3.29,2a18.28,18.28,0,0,0-3,2.31,12.82,12.82,0,0,0-2.37,3,11.54,11.54,0,0,0-1.32,4.07c0,.72-.2,1.16-.7,1.33a4,4,0,0,1-1.94,0,14.55,14.55,0,0,1-2.59-.78l-2.59-1.07A3.36,3.36,0,0,1,43.35,62.18ZM41,69.35a4.37,4.37,0,0,1,1.66-1.52,6,6,0,0,1,2.56-.7,9.37,9.37,0,0,1,3.29.39,8.93,8.93,0,0,1,2.22.93,5.4,5.4,0,0,1,1.38,1.15,3.73,3.73,0,0,1,.7,1.27,4.54,4.54,0,0,1,.2,1.32V73a1.32,1.32,0,0,1-.12.68,4.39,4.39,0,0,1-2.19,2.58,7,7,0,0,1-4.56.62,11.5,11.5,0,0,1-2.33-.56,5.9,5.9,0,0,1-1.91-1.1,4.35,4.35,0,0,1-1.55-3.91A4,4,0,0,1,41,69.35Z"/><path class="cls-2" d="M39.6,59.68a4.55,4.55,0,0,1-.17-2.25,11.59,11.59,0,0,1,1.46-5.18,17.89,17.89,0,0,1,3.09-4,25.83,25.83,0,0,1,3.86-3.1l3.68-2.42A18.13,18.13,0,0,0,57.26,38a5.82,5.82,0,0,0,1.29-3.88,2.12,2.12,0,0,0-.95-1.6A3.21,3.21,0,0,0,55.91,32a6.33,6.33,0,0,0-2.56.56A16.27,16.27,0,0,0,50.82,34c-.84.58-1.71,1.23-2.59,2s-1.77,1.45-2.67,2.16A8.33,8.33,0,0,1,40.64,40a12.56,12.56,0,0,1-5.77-1,3.82,3.82,0,0,1-1.21-.7,2,2,0,0,1-.62-1,2.91,2.91,0,0,1,.2-1.55,11.86,11.86,0,0,1,1.24-2.27,27.19,27.19,0,0,1,6.55-7,19.42,19.42,0,0,1,8.13-3.54,16.44,16.44,0,0,1,5.06-.22,16.65,16.65,0,0,1,4.47,1.12,15.23,15.23,0,0,1,3.66,2.11A15,15,0,0,1,65,28.51a15.76,15.76,0,0,1,3,5.29,11.74,11.74,0,0,1,.51,4.75,10.63,10.63,0,0,1-1.3,4.08A17.07,17.07,0,0,1,65,45.84a16,16,0,0,1-2.79,2.39c-1,.69-2.1,1.37-3.21,2s-2.2,1.32-3.29,2a18.28,18.28,0,0,0-3,2.31,12.82,12.82,0,0,0-2.37,3A11.54,11.54,0,0,0,49,61.64c0,.72-.2,1.16-.7,1.33a4,4,0,0,1-1.94,0,14.55,14.55,0,0,1-2.59-.78l-2.59-1.07A3.36,3.36,0,0,1,39.6,59.68Zm-2.39,7.17a4.37,4.37,0,0,1,1.66-1.52,6,6,0,0,1,2.56-.7,9.37,9.37,0,0,1,3.29.39,8.93,8.93,0,0,1,2.22.93,5.4,5.4,0,0,1,1.38,1.15,3.73,3.73,0,0,1,.7,1.27,4.54,4.54,0,0,1,.2,1.32v.84a1.32,1.32,0,0,1-.12.68,4.39,4.39,0,0,1-2.19,2.58,7,7,0,0,1-4.56.62A11.5,11.5,0,0,1,40,73.85a5.9,5.9,0,0,1-1.91-1.1,4.35,4.35,0,0,1-1.55-3.91A4,4,0,0,1,37.21,66.85Z"/></g></g></svg>