<svg xmlns="http://www.w3.org/2000/svg" viewBox="0 0 290.66 287.82">
  <defs/>
  <path d="M215.11 449.73s9.43-30.6 39.07-34.1c0 0-44-14.93-35.07-52 0 0-8.28 8.31-16.94 18.91.25-7.33 1.55-16.09 5.78-21.83 0 0-18.21 1.09-26.26-11.22 0 0-4 24-14.53 31.93 0 0 15.59 8.13 26.6 12.14a84.25 84.25 0 00-9 15.52S200.13 440.45 215.11 449.73zM209.94 354.33s.58-16.63 3.22-27.84c8.42 1.79 20.3 6.89 21.81 21.41 0 0 9.72-20.42 10.32-32.59a118.42 118.42 0 00-10.64-9 16.08 16.08 0 006.08-6.68s-21.21-12.45-28.28-24.45c0 0 1.05 14.13-16.18 18.3-3.15.77 15.93 18.23 15.93 18.23a13.76 13.76 0 005 .41 27.88 27.88 0 01-2.56 4.75c-6.94 0-23.22-1.4-30.22-13.05a38.16 38.16 0 01-9.82 16.83S205.29 340.91 209.94 354.33zM249.33 356.28s-8.6 17-19.4 20.77c0 0 12.53 7.57 12.23 19.37 0 0 13.6-14 24.16-14.48C266.32 381.94 254.34 359.31 249.33 356.28zM284.38 301c10.25-7 21.56 0 21.56 0 2.16-7-1.62-21-1.62-21-7.54-3.77-23.18-4.85-23.18-4.85C294.08 284.31 284.38 301 284.38 301zM263.21 326.78c.51 1.22 2.79 3.2 5.67 5.34-3.45.36-7.37.33-10-1.06 0 0-.57 15.79 1.19 19 0 0 9.84-6.48 16.77-5.15a19.18 19.18 0 01-2.11-8.71c4.84 3.2 9.37 5.88 9.37 5.88 3.05-11.79 18.9-20.6 18.9-20.6-14.3-7.31-29.9-25.48-29.9-25.48C267.52 305.83 261.68 320.53 263.21 326.78zM270.07 295.86s-9.15-19.88-4.78-32.24c0 0-15.74 5.83-26.12-2.86 0 0 2.86 22.22-4.26 32C234.91 292.77 263.77 298.19 270.07 295.86zM320.92 325.14s-8.27-6.54-13.79-12c-5.17 12-12 27.68-22 50.94 7.56-.43 15.37 0 20 2.75 0 0 2 17.72-5.69 27.18a37.82 37.82 0 00-23.66-5.86c-6.1 24.94-8.22 88.77 126.69 95.51 16.08 1.6 34.45 1.47 55.42-1 0 0-28.53-20.83-6.66-90.25 0 0-35.18 18.48-73 20.22 1-1.92 2.95-4.39 6-5.1 0 0-7.66-4.35-9.06-8.89 0 0-8.51 7.78-9.26 10.32a27.53 27.53 0 018.94 3.79 104.83 104.83 0 01-19-1.29 39.49 39.49 0 01-6.47-2.51 97 97 0 015.4-17.78c3.92-9.67 7.95-18.94 12-27.77a4.9 4.9 0 00-3.63 3.1s-1.52-11.64-17.7-9.94c0 0 11.74-4.39 12.24-11.63 0 0 8.13 2.71 14 7.9 23.56-49.16 46.38-82.37 49.59-88.79 4-8-54.2 13.31-89.49-9.51-9.05 21.81-13.27 32-20.67 49.28 4.28-2.15 9-5.26 11.27-9.26 0 0 4.32 11.42 14 13C336.45 307.52 322.9 316.56 320.92 325.14zm60.84 127.69c-5.51-1.17-11.55 4.34-16.19 10.1a58 58 0 01-12.45-17c4.81-6 7-14.82 7-14.82C360.11 439.21 381.76 452.83 381.76 452.83zm-26.9-38.47s.78 8.63 7.14 11.53c0 0-9.08 3-13 7.65a58.77 58.77 0 01-.89-15.65A15.72 15.72 0 00354.86 414.36zm-4.22-24.17c-6.86 4.6-20.5 14.82-20.5 14.82-8.82-4.22-3.67-19.7-3.67-19.7 7.27-.08 18.93-13.15 18.93-13.15C342 387.29 350.64 390.19 350.64 390.19zm-5.3-67.3c-2.11 7.44 4.6 14.28 4.6 14.28-6.72.54-14.06 8.22-15.44 9.72a60.66 60.66 0 009.73-.08c.17 5-10.48 24.1-10.48 24.1-5.24-7.33-21.61-10.56-21.61-10.56 8.58-5.28 8.19-17.78 8.19-17.78 3.55 2.77 8.91 3.88 13.65 4.28-2.66-3.48-6.32-18.72-6.32-18.72C334.43 329.55 345.34 322.89 345.34 322.89zM237.56 490.14l-12.09 25.22-.19-25.22h-13.7l-9.79 41.45h8.6l6.76-30 .89 30h7.12l14.66-30c-.12 0-7 30-7 30h8.59l9.8-41.45zM271.51 489.14c-13.75 0-16.53 7.85-19.39 18.41l-1.39 5.91c-2.62 11.06-3.6 19.13 10.52 19.13s16.95-8.07 19.57-19.13l1.39-5.91C284.34 497 285.27 489.14 271.51 489.14zm2.21 16.92l-2.5 10.61c-.94 4-2.35 9.67-8.49 9.67-5.89 0-4.89-5.59-4.07-9l2.71-11.49c.76-3.21 1.91-10.45 8.67-10.45C276.43 495.39 274.5 502.74 273.72 506.06z" fill="#ffffff" transform="translate(-167.16 -254.54)"/>
  <path d="M132.56 235.6L123.96 235.6 114.17 277.05 138.73 277.05 140.17 270.97 124.2 270.97 132.56 235.6z" fill="#ffffff"/>
  <path d="M327.28 499.59c-12 0-13.78 6.85-16.36 17.52-2.62 10.83-1.93 15.48 8.61 15.31 10.28.17 13.09-4.48 15.59-15.31C337.58 506.44 339.13 499.59 327.28 499.59zM328.57 511l-2.45 10.39c-.9 3.81-1.61 5.47-5.29 5.47-3.86 0-3.84-1.66-2.94-5.47L320.34 511c.69-2.93 1.4-5.91 5.63-5.91C330 505.12 329.26 508.1 328.57 511zM353.74 491.85h-8l-2 8.57h-3.19l-1.24 5.25h3.25l-5 21.11c-1.37 5.81 5.36 5.42 10.2 4.92l1.34-5.63c-1 .1-3.26.27-3.13-1.06l4.56-19.34h3.38l1.24-5.25h-3.37zM371.62 505.67l1.23-5.25h-3.37l2-8.57h-8l-2 8.57h-3.19L357 505.67h3.25l-5 21.11c-1.36 5.81 5.36 5.42 10.21 4.92l1.32-5.63c-1 .1-3.25.27-3.12-1.06l4.57-19.34zM388.21 499.59c-7.86 0-13 4.2-14.39 11.55l-1.94 8.18c-2.35 9.18.47 13.1 9.69 13.1 8.16 0 12.4-4.42 13.74-11.39h-8c-.8 3.93-2.12 5.86-5.06 5.86-2.4 0-3.94-.77-3-4.86l1.07-4.53h16l1-4.2C399.27 504.78 399.33 499.59 388.21 499.59zm2 9.67l-.64 2.71h-8l.31-1.27c.66-2.82 1.13-5.58 5.12-5.58C390.22 505.12 390.91 506.11 390.23 509.26zM419.19 508.38l2-8.51a8.82 8.82 0 00-5.37 1.65 14.7 14.7 0 00-4.17 4.42h-.13l1.31-5.52h-7.68l-7.36 31.17h8l4.26-18C411.25 509 414.86 508 419.19 508.38zM433.36 517.16c-1.18 2.66-2.25 5.37-3.14 8.07h-.12c.35-2.76.7-5.52.79-8.29l.41-16.52h-8.42l1.1 30.73a18.36 18.36 0 01-.2 4c-.47 2-3.77 1.38-5.06 1.38l-1.32 5.58c10.72 1.44 11.94-3 15.64-10.06l15.88-31.61h-8.11zM362 380.87c5.33 1.47 11.1 11.66 11.1 11.66C380.93 390.79 384.5 380 384.5 380a18.49 18.49 0 01-4.82-7.29C373 381.54 362 380.87 362 380.87zM284.85 456.91v7.23h1.41v-2.85h.86l1.88 2.85h1.6l-2.25-3.2a1.93 1.93 0 001.38-1.9 1.85 1.85 0 00-.74-1.55 2.92 2.92 0 00-1.87-.58zm3.52 2.18c0 .7-.45 1.05-1.36 1.05h-.75v-2.05h.82C287.94 458.09 288.37 458.42 288.37 459.09z" fill="#ffffff" transform="translate(-167.16 -254.54)"/>
  <path d="M282.45,455.84a6.74,6.74,0,1,0,4.74-1.94A6.48,6.48,0,0,0,282.45,455.84Zm10.25,4.72a5.49,5.49,0,0,1-9.38,3.88,5.49,5.49,0,0,1,3.87-9.36,5.35,5.35,0,0,1,3.9,1.61A5.28,5.28,0,0,1,292.7,460.56Z" fill="#ffffff" transform="translate(-167.16 -254.54)"/>
</svg>