<?xml version="1.0" encoding="utf-8"?>
<!-- Generator: Adobe Illustrator 24.2.1, SVG Export Plug-In . SVG Version: 6.00 Build 0)  -->
<svg version="1.1" id="Layer_1" xmlns="http://www.w3.org/2000/svg" xmlns:xlink="http://www.w3.org/1999/xlink" x="0px" y="0px"
	 viewBox="0 0 147 171.4" style="enable-background:new 0 0 147 171.4;" xml:space="preserve">
<style type="text/css">
	.st0{fill:#E21836;}
</style>
<g>
	<path id="SVGID_7_" d="M82.6,55.9c5,2.2,25-12.9,25-12.9S90.9,62.4,93.7,67.1c2.8,4.5,50.8,7.2,53.3,7.3l0,0
		c-2.5,0.1-50.5,3.4-53.3,7.9c-2.8,4.6,13.9,24.1,13.9,24.1s-20-15.3-25-12.9c-5.1,2.8-7.5,51.9-7.5,51.9s-2.4-49.1-7-51.9
		c-5.1-2.3-25.5,12.9-25.5,12.9S59.9,87,57.1,82.3c-3.2-4.6-53.9-7.9-53.9-7.9s50.6-2.8,53.9-7.5c2.8-4.6-14.3-24.1-14.3-24.1
		s20.4,15.3,25.4,13.1c4.6-2.8,7-51.9,7-51.9C75.7,11,77.9,53.1,82.6,55.9"/>
	<g>
		<path id="SVGID_1_" class="st0" d="M82.6,55.9c5,2.2,25-12.9,25-12.9S90.9,62.4,93.7,67.1c2.8,4.5,50.8,7.2,53.3,7.3l0,0
			c-2.5,0.1-50.5,3.4-53.3,7.9c-2.8,4.6,13.9,24.1,13.9,24.1s-20-15.3-25-12.9c-5.1,2.8-7.5,51.9-7.5,51.9s-2.4-49.1-7-51.9
			c-5.1-2.3-25.5,12.9-25.5,12.9S59.9,87,57.1,82.3c-3.2-4.6-53.9-7.9-53.9-7.9s50.6-2.8,53.9-7.5c2.8-4.6-14.3-24.1-14.3-24.1
			s20.4,15.3,25.4,13.1c4.6-2.8,7-51.9,7-51.9C75.7,11,77.9,53.1,82.6,55.9"/>
	</g>
</g>
<g>
	<path id="SVGID_9_" d="M30.2,19.7c2,0.8,9.6-4.9,9.6-4.9s-6.3,7.3-5.3,9.1c1.1,1.7,20.4,2.8,20.4,2.8s-19.3,1.3-20.4,3
		c-1.1,1.7,5.3,9.1,5.3,9.1s-7.6-5.8-9.6-4.9c-2,1-2.8,19.7-2.8,19.7S26.6,35,24.7,33.9c-2-0.8-9.7,4.9-9.7,4.9s6.6-7.3,5.5-9.1
		C19.2,28,0,26.7,0,26.7s19.3-1.1,20.5-2.8c1.1-1.8-5.5-9.1-5.5-9.1s7.7,5.8,9.7,4.9c1.8-1,2.7-19.7,2.7-19.7
		C27.7,2.7,28.6,18.8,30.2,19.7"/>
	<g>
		<path id="SVGID_3_" class="st0" d="M30.2,19.7c2,0.8,9.6-4.9,9.6-4.9s-6.3,7.3-5.3,9.1c1.1,1.7,20.4,2.8,20.4,2.8
			s-19.3,1.3-20.4,3c-1.1,1.7,5.3,9.1,5.3,9.1s-7.6-5.8-9.6-4.9c-2,1-2.8,19.7-2.8,19.7S26.6,35,24.7,33.9c-2-0.8-9.7,4.9-9.7,4.9
			s6.6-7.3,5.5-9.1C19.2,28,0,26.7,0,26.7s19.3-1.1,20.5-2.8c1.1-1.8-5.5-9.1-5.5-9.1s7.7,5.8,9.7,4.9c1.8-1,2.7-19.7,2.7-19.7
			C27.7,2.7,28.6,18.8,30.2,19.7"/>
	</g>
</g>
<g>
	<path id="SVGID_11_" d="M31.7,137.5c2,0.8,9.6-4.9,9.6-4.9s-6.3,7.3-5.3,9.1c1.1,1.8,20.4,2.8,20.4,2.8s-19.3,1.3-20.4,3
		c-1.1,1.7,5.3,9.1,5.3,9.1s-7.6-5.8-9.6-4.9c-2,1.1-2.8,19.7-2.8,19.7s-0.8-18.6-2.7-19.7c-2-0.8-9.7,4.9-9.7,4.9s6.6-7.3,5.5-9.1
		c-1.3-1.7-20.5-3-20.5-3s19.3-1,20.5-2.8c1.1-1.7-5.5-9.1-5.5-9.1s7.7,5.8,9.7,4.9c1.8-1,2.7-19.7,2.7-19.7
		C29,120.5,29.8,136.4,31.7,137.5"/>
	<g>
		<path id="SVGID_5_" class="st0" d="M31.7,137.5c2,0.8,9.6-4.9,9.6-4.9s-6.3,7.3-5.3,9.1c1.1,1.8,20.4,2.8,20.4,2.8
			s-19.3,1.3-20.4,3c-1.1,1.7,5.3,9.1,5.3,9.1s-7.6-5.8-9.6-4.9c-2,1.1-2.8,19.7-2.8,19.7s-0.8-18.6-2.7-19.7
			c-2-0.8-9.7,4.9-9.7,4.9s6.6-7.3,5.5-9.1c-1.3-1.7-20.5-3-20.5-3s19.3-1,20.5-2.8c1.1-1.7-5.5-9.1-5.5-9.1s7.7,5.8,9.7,4.9
			c1.8-1,2.7-19.7,2.7-19.7C29,120.5,29.8,136.4,31.7,137.5"/>
	</g>
</g>
</svg>
