<?xml version="1.0" encoding="utf-8"?>
<!-- Generator: Adobe Illustrator 24.2.1, SVG Export Plug-In . SVG Version: 6.00 Build 0)  -->
<svg version="1.1" id="Layer_1" xmlns="http://www.w3.org/2000/svg" xmlns:xlink="http://www.w3.org/1999/xlink" x="0px" y="0px"
	 viewBox="0 0 147 171.4" style="enable-background:new 0 0 147 171.4;" xml:space="preserve">
<style type="text/css">
	.st0{fill:#E21836;}
</style>
<g>
	<path id="SVGID_7_" d="M64.4,55.9c-5,2.2-25-12.9-25-12.9s16.7,19.4,13.9,24.1C50.5,71.6,2.5,74.3,0,74.4l0,0
		c2.5,0.1,50.5,3.4,53.3,7.9c2.8,4.6-13.9,24.1-13.9,24.1s20-15.3,25-12.9c5.1,2.8,7.5,51.9,7.5,51.9s2.4-49.1,7-51.9
		c5.1-2.3,25.5,12.9,25.5,12.9S87.1,87,89.9,82.3c3.2-4.6,53.9-7.9,53.9-7.9s-50.6-2.8-53.9-7.5c-2.8-4.6,14.3-24.1,14.3-24.1
		S83.8,58.1,78.8,55.9c-4.6-2.8-7-51.9-7-51.9C71.3,11,69.1,53.1,64.4,55.9"/>
	<g>
		<path id="SVGID_1_" class="st0" d="M64.4,55.9c-5,2.2-25-12.9-25-12.9s16.7,19.4,13.9,24.1C50.5,71.6,2.5,74.3,0,74.4l0,0
			c2.5,0.1,50.5,3.4,53.3,7.9c2.8,4.6-13.9,24.1-13.9,24.1s20-15.3,25-12.9c5.1,2.8,7.5,51.9,7.5,51.9s2.4-49.1,7-51.9
			c5.1-2.3,25.5,12.9,25.5,12.9S87.1,87,89.9,82.3c3.2-4.6,53.9-7.9,53.9-7.9s-50.6-2.8-53.9-7.5c-2.8-4.6,14.3-24.1,14.3-24.1
			S83.8,58.1,78.8,55.9c-4.6-2.8-7-51.9-7-51.9C71.3,11,69.1,53.1,64.4,55.9"/>
	</g>
</g>
<g>
	<path id="SVGID_9_" d="M116.8,19.7c-2,0.8-9.6-4.9-9.6-4.9s6.3,7.3,5.3,9.1c-1.1,1.7-20.4,2.8-20.4,2.8s19.3,1.3,20.4,3
		s-5.3,9.1-5.3,9.1s7.6-5.8,9.6-4.9c2,1,2.8,19.7,2.8,19.7s0.8-18.6,2.7-19.7c2-0.8,9.7,4.9,9.7,4.9s-6.6-7.3-5.5-9.1
		c1.3-1.7,20.5-3,20.5-3s-19.3-1.1-20.5-2.8c-1.1-1.8,5.5-9.1,5.5-9.1s-7.7,5.8-9.7,4.9c-1.8-1-2.7-19.7-2.7-19.7
		C119.3,2.7,118.4,18.8,116.8,19.7"/>
	<g>
		<path id="SVGID_3_" class="st0" d="M116.8,19.7c-2,0.8-9.6-4.9-9.6-4.9s6.3,7.3,5.3,9.1c-1.1,1.7-20.4,2.8-20.4,2.8
			s19.3,1.3,20.4,3s-5.3,9.1-5.3,9.1s7.6-5.8,9.6-4.9c2,1,2.8,19.7,2.8,19.7s0.8-18.6,2.7-19.7c2-0.8,9.7,4.9,9.7,4.9
			s-6.6-7.3-5.5-9.1c1.3-1.7,20.5-3,20.5-3s-19.3-1.1-20.5-2.8c-1.1-1.8,5.5-9.1,5.5-9.1s-7.7,5.8-9.7,4.9c-1.8-1-2.7-19.7-2.7-19.7
			C119.3,2.7,118.4,18.8,116.8,19.7"/>
	</g>
</g>
<g>
	<path id="SVGID_11_" d="M115.3,137.5c-2,0.8-9.6-4.9-9.6-4.9s6.3,7.3,5.3,9.1c-1.1,1.8-20.4,2.8-20.4,2.8s19.3,1.3,20.4,3
		s-5.3,9.1-5.3,9.1s7.6-5.8,9.6-4.9c2,1.1,2.8,19.7,2.8,19.7s0.8-18.6,2.7-19.7c2-0.8,9.7,4.9,9.7,4.9s-6.6-7.3-5.5-9.1
		c1.3-1.7,20.5-3,20.5-3s-19.3-1-20.5-2.8c-1.1-1.7,5.5-9.1,5.5-9.1s-7.7,5.8-9.7,4.9c-1.8-1-2.7-19.7-2.7-19.7
		C118,120.5,117.2,136.4,115.3,137.5"/>
	<g>
		<path id="SVGID_5_" class="st0" d="M115.3,137.5c-2,0.8-9.6-4.9-9.6-4.9s6.3,7.3,5.3,9.1c-1.1,1.8-20.4,2.8-20.4,2.8
			s19.3,1.3,20.4,3s-5.3,9.1-5.3,9.1s7.6-5.8,9.6-4.9c2,1.1,2.8,19.7,2.8,19.7s0.8-18.6,2.7-19.7c2-0.8,9.7,4.9,9.7,4.9
			s-6.6-7.3-5.5-9.1c1.3-1.7,20.5-3,20.5-3s-19.3-1-20.5-2.8c-1.1-1.7,5.5-9.1,5.5-9.1s-7.7,5.8-9.7,4.9c-1.8-1-2.7-19.7-2.7-19.7
			C118,120.5,117.2,136.4,115.3,137.5"/>
	</g>
</g>
</svg>
